<mxfile host="65bd71144e">
    <diagram id="bIiDWn-LiHT6Ueku2QZ1" name="Page-1">
        <mxGraphModel dx="1348" dy="1720" grid="1" gridSize="10" guides="1" tooltips="1" connect="1" arrows="1" fold="1" page="1" pageScale="1" pageWidth="827" pageHeight="1169" math="0" shadow="0">
            <root>
                <mxCell id="0"/>
                <mxCell id="1" parent="0"/>
                <mxCell id="2" value="&lt;h1&gt;自己控制流程&lt;/h1&gt;&lt;p&gt;&lt;br&gt;&lt;/p&gt;&lt;p&gt;public class UserServiceTest {&lt;/p&gt;&lt;p&gt;&amp;nbsp; public static boolean doTest() {&lt;/p&gt;&lt;p&gt;&amp;nbsp; &amp;nbsp; // ...&amp;nbsp;&lt;/p&gt;&lt;p&gt;&amp;nbsp; }&lt;/p&gt;&lt;p&gt;&amp;nbsp;&amp;nbsp;&lt;/p&gt;&lt;p&gt;&amp;nbsp; public static void main(String[] args) {//这部分逻辑可以放到框架中&lt;/p&gt;&lt;p&gt;&amp;nbsp; &amp;nbsp; if (doTest()) {&lt;/p&gt;&lt;p&gt;&amp;nbsp; &amp;nbsp; &amp;nbsp; System.out.println(&quot;Test succeed.&quot;);&lt;/p&gt;&lt;p&gt;&amp;nbsp; &amp;nbsp; } else {&lt;/p&gt;&lt;p&gt;&amp;nbsp; &amp;nbsp; &amp;nbsp; System.out.println(&quot;Test failed.&quot;);&lt;/p&gt;&lt;p&gt;&amp;nbsp; &amp;nbsp; }&lt;/p&gt;&lt;p&gt;&amp;nbsp; }&lt;/p&gt;&lt;p&gt;}&lt;/p&gt;" style="text;html=1;strokeColor=#2D7600;fillColor=#60a917;spacing=5;spacingTop=-20;whiteSpace=wrap;overflow=hidden;rounded=0;fontColor=#ffffff;" vertex="1" parent="1">
                    <mxGeometry x="50" y="290" width="390" height="440" as="geometry"/>
                </mxCell>
                <mxCell id="3" value="&lt;h1&gt;抽象一个简单框架，预留扩展点&lt;/h1&gt;&lt;p&gt;&lt;br&gt;&lt;/p&gt;&lt;p&gt;public abstract class TestCase {&lt;/p&gt;&lt;p&gt;&amp;nbsp; public void run() {&lt;/p&gt;&lt;p&gt;&amp;nbsp; &amp;nbsp; if (doTest()) {&lt;/p&gt;&lt;p&gt;&amp;nbsp; &amp;nbsp; &amp;nbsp; System.out.println(&quot;Test succeed.&quot;);&lt;/p&gt;&lt;p&gt;&amp;nbsp; &amp;nbsp; } else {&lt;/p&gt;&lt;p&gt;&amp;nbsp; &amp;nbsp; &amp;nbsp; System.out.println(&quot;Test failed.&quot;);&lt;/p&gt;&lt;p&gt;&amp;nbsp; &amp;nbsp; }&lt;/p&gt;&lt;p&gt;&amp;nbsp; }&lt;/p&gt;&lt;p&gt;&amp;nbsp; // 预留的扩展点-抽象方法&lt;/p&gt;&lt;p&gt;&amp;nbsp; public abstract boolean doTest();&lt;/p&gt;&lt;p&gt;}&lt;/p&gt;&lt;p&gt;&lt;br&gt;&lt;/p&gt;&lt;p&gt;public class JunitApplication {&lt;/p&gt;&lt;p&gt;&amp;nbsp; private static final List&amp;lt;TestCase&amp;gt; testCases = new ArrayList&amp;lt;&amp;gt;();&lt;/p&gt;&lt;p&gt;&amp;nbsp;&amp;nbsp;&lt;/p&gt;&lt;p&gt;&amp;nbsp; public static void register(TestCase testCase) {&lt;/p&gt;&lt;p&gt;&amp;nbsp; &amp;nbsp; testCases.add(testCase);&lt;/p&gt;&lt;p&gt;&amp;nbsp; }&lt;/p&gt;&lt;p&gt;&amp;nbsp;&amp;nbsp;&lt;/p&gt;&lt;p&gt;&amp;nbsp; public static final void main(String[] args) {&lt;/p&gt;&lt;p&gt;&amp;nbsp; &amp;nbsp; for (TestCase case: testCases) {&lt;/p&gt;&lt;p&gt;&amp;nbsp; &amp;nbsp; &amp;nbsp; case.run();&lt;/p&gt;&lt;p&gt;&amp;nbsp; &amp;nbsp; }&lt;/p&gt;&lt;p&gt;&amp;nbsp; }&lt;/p&gt;" style="text;html=1;strokeColor=#3A5431;fillColor=#6d8764;spacing=5;spacingTop=-20;whiteSpace=wrap;overflow=hidden;rounded=0;fontColor=#ffffff;" vertex="1" parent="1">
                    <mxGeometry x="520" y="290" width="410" height="710" as="geometry"/>
                </mxCell>
                <mxCell id="4" value="&lt;h1&gt;再次测试，不需要负责执行流程了&lt;/h1&gt;&lt;p&gt;&lt;br&gt;&lt;/p&gt;&lt;p&gt;public class UserServiceTest extends TestCase {&lt;/p&gt;&lt;p&gt;&amp;nbsp; @Override&lt;/p&gt;&lt;p&gt;&amp;nbsp; public boolean doTest() {&lt;/p&gt;&lt;p&gt;&amp;nbsp; &amp;nbsp; // ...&amp;nbsp;&lt;/p&gt;&lt;p&gt;&amp;nbsp; }&lt;/p&gt;&lt;p&gt;}&lt;/p&gt;&lt;p&gt;&lt;br&gt;&lt;/p&gt;&lt;p&gt;// 注册操作还可以通过配置的方式来实现，不需要程序员显示调用register()&lt;/p&gt;&lt;p&gt;JunitApplication.register(new UserServiceTest();&lt;/p&gt;" style="text;html=1;strokeColor=#B09500;fillColor=#e3c800;spacing=5;spacingTop=-20;whiteSpace=wrap;overflow=hidden;rounded=0;fontColor=#000000;" vertex="1" parent="1">
                    <mxGeometry x="990" y="290" width="470" height="440" as="geometry"/>
                </mxCell>
                <mxCell id="5" value="" style="shape=flexArrow;endArrow=classic;html=1;exitX=1.003;exitY=0.457;exitDx=0;exitDy=0;exitPerimeter=0;entryX=0;entryY=0.282;entryDx=0;entryDy=0;entryPerimeter=0;" edge="1" parent="1" source="2" target="3">
                    <mxGeometry width="50" height="50" relative="1" as="geometry">
                        <mxPoint x="450" y="530" as="sourcePoint"/>
                        <mxPoint x="500" y="480" as="targetPoint"/>
                    </mxGeometry>
                </mxCell>
            </root>
        </mxGraphModel>
    </diagram>
</mxfile>